<svg xmlns="http://www.w3.org/2000/svg" xmlns:xlink="http://www.w3.org/1999/xlink" width="1920.002" height="771.382" viewBox="0 0 1920.002 771.382">
  <defs>
    <linearGradient id="linear-gradient" x1="1.16" y1="0.54" x2="-0.154" y2="-0.172" gradientUnits="objectBoundingBox">
      <stop offset="0" stop-color="#204988"/>
      <stop offset="1" stop-color="#701637"/>
    </linearGradient>
  </defs>
  <path id="Union_2" data-name="Union 2" d="M0,402.381H.11V578.12c1.1-13.775,11.874-53.752,96.451-82.856,103.732-35.7,1603.354,90.633,1682.29,103.236S1920,771.382,1920,771.382V369h-.11V193.262c-1.1,13.778-11.881,53.753-96.449,82.855-103.735,35.7-1603.357-90.635-1682.293-103.236S0,0,0,0ZM1919.891,193.262a24.9,24.9,0,0,0,0-4.9ZM.11,583.017v-4.9A24.944,24.944,0,0,0,.11,583.017Z" transform="translate(1920.002 771.382) rotate(180)" fill="url(#linear-gradient)"/>
</svg>
