<svg xmlns="http://www.w3.org/2000/svg" xmlns:xlink="http://www.w3.org/1999/xlink" width="622.818" height="1015.513" viewBox="0 0 622.818 1015.513">
  <defs>
    <linearGradient id="linear-gradient" x1="0.92" y1="0.267" x2="-0.316" y2="1.319" gradientUnits="objectBoundingBox">
      <stop offset="0" stop-color="#7787b2"/>
      <stop offset="1" stop-color="#09173d"/>
    </linearGradient>
    <linearGradient id="linear-gradient-2" x1="0.781" y1="0.247" x2="0.25" y2="0.618" gradientUnits="objectBoundingBox">
      <stop offset="0" stop-color="#4b5a84"/>
      <stop offset="1" stop-color="#543e64"/>
    </linearGradient>
    <linearGradient id="linear-gradient-3" x1="0.728" y1="-0.567" x2="1.018" y2="0.175" gradientUnits="objectBoundingBox">
      <stop offset="0" stop-color="#52466d"/>
      <stop offset="1" stop-color="#4e5179"/>
    </linearGradient>
  </defs>
  <g id="Group_9" data-name="Group 9" transform="translate(-123.003 -102.197)">
    <path id="Path_8" data-name="Path 8" d="M435.71,248.911c0,3.01,43.151,71.567,51.18,106.691S474.4,421.891,474.4,438.227a83.76,83.76,0,0,0,1.739,16.831,18.455,18.455,0,0,1-23.534,21.27c-16.868-5.105-34.361-14.095-37.969-29.722-9.324-40.386,8.625-75.512-5.425-90.16s-53.783-20.229-53.783-20.229Z" transform="translate(204.609 129.156)" fill="url(#linear-gradient)"/>
    <path id="Path_9" data-name="Path 9" d="M164.639,976.319S104.113,632.745,273.23,385.3,643.5,91.573,682.668,104.036s135.293,199.378-32.042,380.955S198.462,752.017,198.462,963.856c120.965,41.657,88.458,117.238,88.458,117.238s-43.885,16.254-71.516-8.941c-22.756,48.762-76.394,45.511-76.394,45.511S89.494,1030.83,164.639,976.319Z" transform="translate(0 0)" fill="url(#linear-gradient-2)"/>
    <path id="Path_10" data-name="Path 10" d="M697.163,157.527a48.33,48.33,0,0,0-56.037-31.789c-79.6,16.974-228.848,88.208-359.115,278.808C162.986,578.7,157.714,800.462,165.032,916.557,188.485,724.463,455.621,638.72,615.514,465.219,722.442,349.192,721.787,231,697.163,157.527Z" transform="translate(35.111 19.772)" fill="#fff"/>
    <path id="Path_11" data-name="Path 11" d="M369.186,215.558s-16.992-25.435-46.1-25.435c-51.186,0-86.485,73.248-129.729,72.366a87.782,87.782,0,0,1-26.994-4.219c-13.61-4.387-26.575,8-23.389,21.94,4.9,21.436,20.339,44.938,64.5,44.938,48.358,0,102.367-59.221,102.367-59.221Z" transform="translate(17.154 77.403)" fill="url(#linear-gradient-3)"/>
    <g id="Group_1" data-name="Group 1" transform="translate(444.22 182.199)">
      <path id="Path_12" data-name="Path 12" d="M304.191,192.314a38.943,38.943,0,0,1-7.1-.566A4.114,4.114,0,0,1,298.8,183.7c1.491.306,34.839,6.6,47.48-36.012a4.113,4.113,0,1,1,7.886,2.341C343.046,187.516,316.857,192.314,304.191,192.314Z" transform="translate(-293.834 -144.744)" fill="#364478"/>
    </g>
    <g id="Group_2" data-name="Group 2" transform="translate(236.817 217.014)">
      <path id="Path_13" data-name="Path 13" d="M186.274,633.826a2.707,2.707,0,0,1-1.032-.2,2.738,2.738,0,0,1-1.506-3.573c.346-.852,35.438-86.367,98.924-186.048C341.31,351.913,436.906,228.51,559.251,163.58a2.743,2.743,0,0,1,2.57,4.846c-121.288,64.367-216.239,186.99-274.535,278.523-63.224,99.27-98.128,184.324-98.472,185.17A2.738,2.738,0,0,1,186.274,633.826Z" transform="translate(-183.532 -163.259)" fill="#364478"/>
    </g>
    <g id="Group_3" data-name="Group 3" transform="translate(236.816 209.624)">
      <path id="Path_14" data-name="Path 14" d="M186.272,700.047a2.744,2.744,0,0,1-2.332-4.184c2.279-3.689,230.123-371.072,428.877-535.9a2.742,2.742,0,0,1,3.5,4.221C418.249,328.445,190.883,695.061,188.609,698.746A2.745,2.745,0,0,1,186.272,700.047Z" transform="translate(-183.532 -159.329)" fill="#364478"/>
    </g>
    <g id="Group_4" data-name="Group 4" transform="translate(228.83 219.734)">
      <path id="Path_15" data-name="Path 15" d="M182.023,752.5a2.742,2.742,0,0,1-2.273-4.272c61.37-91.308,143.884-181.9,223.681-269.51C506.009,366.1,602.9,259.724,641.279,166.406a2.742,2.742,0,0,1,5.073,2.085C607.6,262.7,510.4,369.426,407.487,482.414c-79.664,87.463-162.041,177.9-223.185,268.877A2.739,2.739,0,0,1,182.023,752.5Z" transform="translate(-179.284 -164.706)" fill="#364478"/>
    </g>
    <g id="Group_5" data-name="Group 5" transform="translate(378.687 250.045)">
      <path id="Path_16" data-name="Path 16" d="M261.726,599.22a2.742,2.742,0,0,1-1.824-4.791c24.48-21.759,49.719-41.918,74.128-61.409,96.28-76.89,195.836-156.4,265.639-350.381a2.743,2.743,0,0,1,5.161,1.856C534.5,379.941,434.328,459.939,337.454,537.3c-24.354,19.448-49.537,39.558-73.908,61.221A2.721,2.721,0,0,1,261.726,599.22Z" transform="translate(-258.982 -180.826)" fill="#364478"/>
    </g>
    <g id="Group_6" data-name="Group 6" transform="translate(360.948 270.612)">
      <path id="Path_17" data-name="Path 17" d="M282.134,221.625a2.743,2.743,0,0,1-2.349-1.32c-10.206-16.838-28.2-23.141-28.38-23.2a2.743,2.743,0,0,1,1.764-5.2c.812.276,20.035,6.955,31.305,25.552a2.743,2.743,0,0,1-2.341,4.165Z" transform="translate(-249.548 -191.764)" fill="#17174f"/>
    </g>
    <g id="Group_7" data-name="Group 7" transform="translate(270.487 362.948)">
      <path id="Path_18" data-name="Path 18" d="M204.179,265.968a2.743,2.743,0,0,1-.72-5.389,318.382,318.382,0,0,0,51.122-19.418,2.743,2.743,0,1,1,2.454,4.906,324.325,324.325,0,0,1-52.132,19.8A2.751,2.751,0,0,1,204.179,265.968Z" transform="translate(-201.438 -240.871)" fill="#17174f"/>
    </g>
    <g id="Group_8" data-name="Group 8" transform="translate(210.051 999.743)">
      <path id="Path_19" data-name="Path 19" d="M174.65,654.687a2.679,2.679,0,0,1-.874-.145,2.74,2.74,0,0,1-1.726-3.473c16.011-47.551-1.8-66.689-1.978-66.877a2.742,2.742,0,0,1,3.905-3.851c.844.85,20.465,21.409,3.272,72.481A2.743,2.743,0,0,1,174.65,654.687Z" transform="translate(-169.297 -579.533)" fill="#1e2748"/>
    </g>
  </g>
</svg>
